<svg width="64" height="64" viewBox="0 0 64 64" fill="none" xmlns="http://www.w3.org/2000/svg">
<path fill-rule="evenodd" clip-rule="evenodd" d="M34 12C35.1046 12 36 12.8954 36 14V23C36 24.1046 35.1046 25 34 25H29V12H34ZM40 14C40 10.6863 37.3137 8 34 8H25V29H34C37.3137 29 40 26.3137 40 23V14ZM56 52L8 52V56L56 56V52ZM47 12H56V8H43V28H47V21L53.0667 21V17H47V12ZM17 12C18.1046 12 19 12.8954 19 14V15C19 16.1046 18.1046 17 17 17H12L12 12L17 12ZM17 21L12 21L12 28H8V8H17C20.3137 8 23 10.6863 23 14V15C23 18.3137 20.3137 21 17 21ZM32.0001 49.8286L24.5859 42.4144L27.4143 39.586L30 42.1717V32H34V42.1719L36.5859 39.586L39.4143 42.4144L32.0001 49.8286Z" fill="#D0103A"/>
</svg>
