<svg viewBox="0 0 64 64" fill="none" xmlns="http://www.w3.org/2000/svg">
<path fill-rule="evenodd" clip-rule="evenodd" d="M53 24C53 16.268 46.732 10 39 10V6C48.9411 6 57 14.0589 57 24H53Z" fill="#D0103A"/>
<path fill-rule="evenodd" clip-rule="evenodd" d="M34 8.4144L42.4142 0.000186116L45.2426 2.82861L39.6569 8.4144L45.2426 14.0002L42.4142 16.8286L34 8.4144Z" fill="#D0103A"/>
<path fill-rule="evenodd" clip-rule="evenodd" d="M29.2427 55.4142L20.8285 63.8284L18 61L23.5858 55.4142L18 49.8284L20.8285 47L29.2427 55.4142Z" fill="#D0103A"/>
<path fill-rule="evenodd" clip-rule="evenodd" d="M10 40C10 47.732 16.268 54 24 54L24 58C14.0589 58 6 49.9411 6 40L10 40Z" fill="#D0103A"/>
<path fill-rule="evenodd" clip-rule="evenodd" d="M17.3235 10.0217C17.2856 10.0323 17.2486 10.0463 17.2129 10.0634L17.151 10.0931L17.0873 10.1185C14.784 11.0362 13.5932 12.486 13.1944 14.3986C12.6968 16.8159 13.1152 20.4419 14.9239 24.7668C16.7136 29.0461 19.8045 33.8581 24.4161 38.5854C29.1319 43.182 33.9429 46.2694 38.2255 48.0621C42.5472 49.8712 46.1767 50.301 48.598 49.8168C50.5265 49.3951 51.951 48.2008 52.8902 45.9076L52.8926 45.9017C52.9335 45.8027 52.9602 45.7325 52.9784 45.6788C52.9465 45.6291 52.8933 45.5547 52.8069 45.4535C52.6208 45.2357 52.3225 44.9419 51.8515 44.5517L44.3214 39.4015C44.3195 39.4012 44.3181 39.4011 44.3171 39.401C44.311 39.4004 44.2851 39.3983 44.2284 39.4143C44.1007 39.4502 43.8172 39.5806 43.4003 39.9898L43.3164 40.0722L43.2234 40.1442C41.2017 41.709 39.0691 42.4219 36.9519 42.2289C34.8586 42.038 33.0635 40.9873 31.6374 39.5648L31.6359 39.5633L23.4331 31.3635C23.4321 31.3625 23.4311 31.3615 23.4301 31.3605C22.0418 29.9831 20.727 28.3469 20.4627 26.25C20.1904 24.0894 21.0889 21.9913 22.7843 19.8184L22.8238 19.7677L22.9465 19.6297L22.988 19.5882C23.4116 19.1648 23.5408 18.8858 23.5753 18.7666C23.5903 18.715 23.5884 18.6919 23.5878 18.6853C23.5876 18.683 23.5872 18.6786 23.5858 18.6717L18.4307 11.1276C17.9054 10.4922 17.5666 10.1891 17.3675 10.0511C17.3509 10.0395 17.3363 10.0298 17.3235 10.0217ZM17.3692 6C19.0618 6 20.3459 7.15016 21.5805 8.66024L21.6349 8.72679L27.0861 16.7043L27.15 16.8353C27.6199 17.7981 27.7167 18.8463 27.4174 19.8795C27.1428 20.8274 26.5703 21.6471 25.8843 22.348C24.5313 24.1024 24.352 25.1203 24.4313 25.7499C24.5195 26.45 24.9918 27.2757 26.25 28.5236L26.2555 28.5291L34.4622 36.7328C34.4627 36.7332 34.4631 36.7337 34.4636 36.7341C34.4637 36.7342 34.4635 36.7341 34.4636 36.7341C35.4136 37.6812 36.3832 38.1604 37.3151 38.2454C38.2058 38.3266 39.3321 38.0731 40.6928 37.0439C42.1367 35.6725 44.1225 34.8207 46.1797 35.8489L46.3019 35.91L54.2551 41.3496L54.3223 41.4046C55.487 42.3594 56.4032 43.3116 56.7949 44.428C57.2506 45.7268 56.8502 46.798 56.5905 47.4268C55.2217 50.7666 52.8284 52.994 49.4294 53.7295L49.4156 53.7325L49.4018 53.7353C45.9199 54.4374 41.4361 53.7424 36.6809 51.7518C31.8842 49.7439 26.6512 46.3541 21.6055 41.4316L21.5881 41.4146L21.5711 41.3972C16.6344 36.341 13.2396 31.1066 11.2336 26.3101C9.24507 21.5551 8.55904 17.073 9.27719 13.5892L9.27797 13.5854C9.97961 10.2149 12.192 7.78071 15.5494 6.42559C16.0895 6.17685 16.6722 6.03322 17.2664 6.00264L17.3178 6H17.3692Z" fill="#D0103A"/>
</svg>
