<svg viewBox="0 0 64 64" fill="none" xmlns="http://www.w3.org/2000/svg">
<path fill-rule="evenodd" clip-rule="evenodd" d="M52.0536 30.8342C53.7006 28.8038 56.7185 28.5822 58.6445 30.3503C60.3741 31.9381 60.6063 34.5833 59.1798 36.4481L48.0337 51.0199C46.8985 52.5041 45.1366 53.3746 43.268 53.3746H25.0128C24.4933 53.3746 23.9942 53.5767 23.6211 53.9382L20.7399 56.7296C18.4068 58.9901 14.6984 58.9831 12.3738 56.714L6.42853 50.9105C4.07885 48.6169 4.00928 44.8606 6.2724 42.4816L13.9084 34.4544C15.0537 33.2504 16.647 32.5753 18.3086 32.59L38.778 32.7707C40.6077 32.7869 42.3172 33.6824 43.2956 35.0393C43.7967 35.7342 44.1484 36.6151 44.1303 37.5986C44.1117 38.6098 43.7039 39.5554 42.9821 40.328C42.0761 41.2978 40.7651 42.0957 39.0348 42.0957H31.6011C31.403 42.0957 31.2637 42.2923 31.3316 42.4806C31.3727 42.5945 31.4808 42.6704 31.6018 42.6704H40.1445C40.6935 42.6704 41.2184 42.4447 41.5961 42.0462L51.0498 32.0717L52.0536 30.8342ZM55.9394 33.2969C55.7117 33.0878 55.3548 33.114 55.16 33.3541L54.0591 34.7113L44.4993 44.7978C43.3662 45.9933 41.7916 46.6704 40.1445 46.6704H31.6018C29.7951 46.6704 28.1822 45.5377 27.569 43.8382C26.5611 41.0448 28.6293 38.0957 31.6011 38.0957H39.0348C39.4179 38.0957 39.7293 37.9504 40.0593 37.5972C40.095 37.559 40.1151 37.5313 40.1258 37.5137C40.1177 37.489 40.0979 37.4436 40.0511 37.3788C39.842 37.0887 39.3422 36.7759 38.7427 36.7706L18.2733 36.5899C17.7195 36.585 17.1884 36.81 16.8066 37.2113L9.17056 45.2385C8.41618 46.0315 8.43937 47.2836 9.2226 48.0482L15.1679 53.8516C15.9427 54.608 17.1789 54.6103 17.9566 53.8568L20.8378 51.0654C21.9571 49.981 23.4543 49.3746 25.0128 49.3746H43.268C43.8909 49.3746 44.4782 49.0844 44.8566 48.5897L56.0027 34.0179C56.1714 33.7974 56.1439 33.4846 55.9394 33.2969ZM40.1371 37.4902C40.1375 37.4901 40.1368 37.493 40.134 37.4989C40.1353 37.4932 40.1367 37.4902 40.1371 37.4902Z" fill="#D0103A"/>
<path d="M28.7968 11.4635C28.7968 9.59363 30.6102 8.6587 32.4529 8.6587C34.7928 8.6587 36.5185 9.85657 36.5185 13.158H39.9991C40.0576 8.86321 37.3082 6 32.5406 6C28.9138 6 25.17 7.54847 25.17 11.3174C25.17 13.0704 25.9012 14.5604 26.6324 15.9628H24V18.0372H27.6561C27.9193 18.7092 28.0948 19.3811 28.0948 20.0823C28.0948 23.0332 26.1059 24.494 24.1462 25.429L25.3747 28C26.8371 27.1819 28.2703 26.7437 29.4403 26.7437C31.5754 26.7437 33.4181 28 35.4948 28C37.1035 28 38.9754 27.4449 39.9991 26.8606L38.9754 24.3187C37.7177 24.7862 36.46 25.166 35.29 25.166C33.4474 25.166 32.3067 24.2603 30.7565 24.2603C30.1715 24.2603 29.528 24.3772 28.8553 24.6693L28.826 24.6109C30.2592 23.5883 31.5754 21.8645 31.5754 19.8194C31.5754 19.2351 31.4292 18.6507 31.2245 18.0372H35.4948V15.9628H30.347C29.5865 14.4728 28.7968 12.9535 28.7968 11.4635Z" fill="#D0103A"/>
</svg>
