<svg viewBox="0 0 64 64" fill="none" xmlns="http://www.w3.org/2000/svg">
<path fill-rule="evenodd" clip-rule="evenodd" d="M21.8738 25.9225C24.1213 23.9993 27.5044 22 31.8596 22C36.2147 22 39.5978 23.9993 41.8453 25.9225C44.079 27.8338 45.3278 29.7832 45.4772 30.0164L45.4858 30.0299L46.7191 32L45.4858 33.9701L45.4772 33.9836C45.3278 34.2168 44.079 36.1662 41.8453 38.0775C39.5978 40.0007 36.2147 42 31.8596 42C27.5044 42 24.1213 40.0007 21.8738 38.0775C19.6401 36.1662 18.3913 34.2168 18.2419 33.9836L18.2333 33.9701L17 32L18.2333 30.0299L18.2419 30.0164C18.3913 29.7832 19.6401 27.8338 21.8738 25.9225ZM21.7252 32C22.0433 32.4678 22.9856 33.7643 24.4744 35.0383C26.2916 36.5933 28.7847 38 31.8596 38C34.9344 38 37.4275 36.5933 39.2447 35.0383C40.7335 33.7643 41.6758 32.4678 41.9939 32C41.6758 31.5322 40.7335 30.2357 39.2447 28.9617C37.4275 27.4067 34.9344 26 31.8596 26C28.7847 26 26.2916 27.4067 24.4744 28.9617C22.9856 30.2357 22.0433 31.5322 21.7252 32Z" fill="#D0103A"/>
<path fill-rule="evenodd" clip-rule="evenodd" d="M32.0508 35.9545C34.3168 35.9545 36.1538 34.1176 36.1538 31.8515C36.1538 31.431 36.0905 31.0252 35.9729 30.6432C35.6513 31.3557 34.9346 31.8515 34.1021 31.8515C32.9691 31.8515 32.0506 30.933 32.0506 29.8C32.0506 28.9676 32.5464 28.2509 33.2589 27.9293C32.8769 27.8118 32.4712 27.7485 32.0508 27.7485C29.7847 27.7485 27.9478 29.5855 27.9478 31.8515C27.9478 34.1176 29.7847 35.9545 32.0508 35.9545Z" fill="#D0103A"/>
<path fill-rule="evenodd" clip-rule="evenodd" d="M43.4142 0L35 8.41421L43.4142 16.8284L46.2426 14L42.4574 10.2148C49.0176 11.3763 54 17.1062 54 23.9998H58C58 15.0276 51.4355 7.58858 42.8473 6.22375L46.2426 2.82843L43.4142 0Z" fill="#D0103A"/>
<path fill-rule="evenodd" clip-rule="evenodd" d="M22.0348 53.8631C15.2332 52.9077 10 47.065 10 40H6C6 48.9937 12.596 56.4468 21.2143 57.7857L18 61L20.8285 63.8284L29.2427 55.4142L20.8285 47L18 49.8284L22.0348 53.8631Z" fill="#D0103A"/>
</svg>
