<svg viewBox="0 0 64 64" fill="none" xmlns="http://www.w3.org/2000/svg">
<path fill-rule="evenodd" clip-rule="evenodd" d="M31 40C31 45.5228 35.4772 50 41 50V54C33.268 54 27 47.732 27 40H31Z" fill="#D0103A"/>
<path fill-rule="evenodd" clip-rule="evenodd" d="M51 40C51 34.4772 46.5228 30 41 30V26C48.732 26 55 32.268 55 40H51Z" fill="#D0103A"/>
<path fill-rule="evenodd" clip-rule="evenodd" d="M38.8286 25.2426L45.8997 32.3137L43.0713 35.1421L36.0002 28.071L38.8286 25.2426Z" fill="#D0103A"/>
<path fill-rule="evenodd" clip-rule="evenodd" d="M35.9999 28.071L43.071 20.9999L45.8994 23.8284L38.8283 30.8994L35.9999 28.071Z" fill="#D0103A"/>
<path fill-rule="evenodd" clip-rule="evenodd" d="M43.3134 49.2426L36.2424 56.3137L39.0708 59.1421L46.1419 52.071L43.3134 49.2426Z" fill="#D0103A"/>
<path fill-rule="evenodd" clip-rule="evenodd" d="M46.1422 52.071L39.0711 44.9999L36.2427 47.8284L43.3137 54.8994L46.1422 52.071Z" fill="#D0103A"/>
<path fill-rule="evenodd" clip-rule="evenodd" d="M32.0002 8.17139L39.7635 15.9347L36.9351 18.7632L32.0002 13.8282L18.0001 27.8283V52H27V56H14.0001V31.8283L11.4144 34.414L8.58594 31.5856L32.0002 8.17139Z" fill="#D0103A"/>
</svg>
