<?xml version="1.0" encoding="utf-8"?>
<svg version="1.1" id="Layer_1" xmlns="http://www.w3.org/2000/svg" xmlns:xlink="http://www.w3.org/1999/xlink" x="0px" y="0px"
	 viewBox="0 0 24 24" style="enable-background:new 0 0 24 24;" xml:space="preserve">
<style type="text/css">
	.property-st0{fill:none;}
	.property-st1{fill:currentColor;}
	.property-st2{fill:currentColor;}
</style>
<rect id="Rectangle_2199" x="-1" y="-1" class="property-st0" width="25" height="25"/>
<path class="property-st1 color-fill" d="M11.9,1.3L1.4,10.9l1,1.2l1.1-1v11.2h7.3v-1.6c-2.4,0-5.8,0-5.8,0v-11l7-6.3l7,6.3v11c0,0-6,0-8.2,0v1.6h9.6
	V11.1l1.1,1l1-1.2L11.9,1.3z"/>
<polygon class="property-st2 color-fill" points="10,12 8.7,12 8.4,12 8.4,22 10,22 10,13.6 13.7,13.6 13.7,22 15.3,22 15.3,13.6 15.3,12.8 15.3,12 "/>
</svg>
