<svg viewBox="0 0 64 64" fill="none" xmlns="http://www.w3.org/2000/svg">
<path fill-rule="evenodd" clip-rule="evenodd" d="M54.8288 31L32.0002 8.17139L8.58594 31.5856L11.4144 34.414L14.0001 31.8283V56H34.0001V52H18.0001V27.8283L32.0002 13.8282L46.0001 27.8282V31H54.8288Z" fill="#D0103A"/>
<path d="M41.7968 39.4635C41.7968 37.5936 43.6102 36.6587 45.4529 36.6587C47.7928 36.6587 49.5185 37.8566 49.5185 41.158H52.9991C53.0576 36.8632 50.3082 34 45.5406 34C41.9138 34 38.17 35.5485 38.17 39.3174C38.17 41.0704 38.9012 42.5604 39.6324 43.9628H37V46.0372H40.6561C40.9193 46.7092 41.0948 47.3811 41.0948 48.0823C41.0948 51.0332 39.1059 52.494 37.1462 53.429L38.3747 56C39.8371 55.1819 41.2703 54.7437 42.4403 54.7437C44.5754 54.7437 46.4181 56 48.4948 56C50.1035 56 51.9754 55.4449 52.9991 54.8606L51.9754 52.3187C50.7177 52.7862 49.46 53.166 48.29 53.166C46.4474 53.166 45.3067 52.2603 43.7565 52.2603C43.1715 52.2603 42.528 52.3772 41.8553 52.6693L41.826 52.6109C43.2592 51.5883 44.5754 49.8645 44.5754 47.8194C44.5754 47.2351 44.4292 46.6507 44.2245 46.0372H48.4948V43.9628H43.347C42.5865 42.4728 41.7968 40.9535 41.7968 39.4635Z" fill="#D0103A"/>
</svg>
