<svg viewBox="0 0 64 64" fill="none" xmlns="http://www.w3.org/2000/svg">
<path fill-rule="evenodd" clip-rule="evenodd" d="M28 12C23.5817 12 20 15.5817 20 20C20 24.4183 23.5817 28 28 28C32.4183 28 36 24.4183 36 20C36 15.5817 32.4183 12 28 12ZM16 20C16 13.3726 21.3726 8 28 8C34.6274 8 40 13.3726 40 20C40 26.6274 34.6274 32 28 32C21.3726 32 16 26.6274 16 20Z" fill="#D0103A"/>
<path fill-rule="evenodd" clip-rule="evenodd" d="M44.9041 25L59.8083 39.6938L57 42.5423L56.7223 42.2685V55.8085H45.6655V47.7609H44.1428V55.8085H33.0859V42.2685L32.8083 42.5423L30 39.6938L44.9041 25ZM37.0859 38.325V51.8085H40.1428V43.7609H49.6655V51.8085H52.7223V38.325L44.9041 30.6171L37.0859 38.325Z" fill="#D0103A"/>
<path fill-rule="evenodd" clip-rule="evenodd" d="M34 38.2223L32.3046 39.9761L32.5509 40.2224C33.0472 40.2728 33.5301 40.3312 34 40.3967V38.2223ZM34 52H34V55.9999H30V52H8V46.8084C10.3698 44.438 15.5571 40.3163 26.7015 40.0172L30.5258 36.0611C29.7104 36.021 28.8686 36 28 36C14.7186 36 8.23765 40.8997 5.13071 44.0209C4.37511 44.78 4 45.789 4 46.7909V52C4 54.2091 5.79086 56 8 56H34V52Z" fill="#D0103A"/>
</svg>
