<svg viewBox="0 0 64 64" fill="none" xmlns="http://www.w3.org/2000/svg">
<path d="M58 18C58 21.3137 55.3137 24 52 24C48.6863 24 46 21.3137 46 18C46 14.6863 48.6863 12 52 12C55.3137 12 58 14.6863 58 18Z" fill="#D0103A"/>
<path fill-rule="evenodd" clip-rule="evenodd" d="M42.8321 14H12C9.79219 14 8 15.7885 8 17.999V46.0074C8 48.2262 9.80054 50 12 50H52C54.1995 50 56 48.2262 56 46.0074V27.1679C54.7751 27.7031 53.4222 28 52 28V46H12L12 20.3826L29.4833 34.5358C30.9509 35.7238 33.0493 35.7238 34.5169 34.5358L45.5271 25.6227C44.5063 24.7551 43.6621 23.686 43.0557 22.477L32.0001 31.4268L15.4141 18H42C42 16.5778 42.2969 15.2249 42.8321 14ZM47.5278 14C46.5777 15.0615 46 16.4633 46 18H48.5861L46.2928 19.8565C46.7207 21.1729 47.5913 22.2896 48.729 23.0308L52 20.3828V24C53.5367 24 54.9385 23.4223 56 22.4722V17.999C56 15.7885 54.2078 14 52 14H47.5278Z" fill="#D0103A"/>
</svg>
