<svg viewBox="0 0 64 64" fill="none" xmlns="http://www.w3.org/2000/svg">
<path fill-rule="evenodd" clip-rule="evenodd" d="M32 12C27.5817 12 24 15.5817 24 20C24 24.4183 27.5817 28 32 28C36.4183 28 40 24.4183 40 20C40 15.5817 36.4183 12 32 12ZM20 20C20 13.3726 25.3726 8 32 8C38.6274 8 44 13.3726 44 20C44 26.6274 38.6274 32 32 32C25.3726 32 20 26.6274 20 20Z" fill="#D0103A"/>
<path fill-rule="evenodd" clip-rule="evenodd" d="M32.1544 36.0002C32.103 36.0001 32.0516 36 32 36C18.7186 36 12.2376 40.8997 9.13071 44.0209C8.37511 44.78 8 45.789 8 46.7909V52C8 54.2091 9.79086 56 12 56H37.9568C35.8975 55.0006 34.1459 53.7434 32.7239 52.5086C32.5287 52.339 32.3389 52.1693 32.1546 52H12V46.8084C14.2047 44.6032 18.8479 40.8821 28.4577 40.1335C29.1871 39.1327 30.4303 37.5844 32.1544 36.0002Z" fill="#D0103A"/>
<path fill-rule="evenodd" clip-rule="evenodd" d="M36.8738 37.9225C39.1213 35.9993 42.5044 34 46.8596 34C51.2147 34 54.5978 35.9993 56.8453 37.9225C59.079 39.8338 60.3278 41.7832 60.4772 42.0164L60.4858 42.0299L61.7191 44L60.4858 45.9701L60.4772 45.9836C60.3278 46.2168 59.079 48.1662 56.8453 50.0775C54.5978 52.0007 51.2147 54 46.8596 54C42.5044 54 39.1213 52.0007 36.8738 50.0775C34.6401 48.1662 33.3913 46.2168 33.2419 45.9836L33.2333 45.9701L32 44L33.2333 42.0299L33.2419 42.0164C33.3913 41.7832 34.6401 39.8338 36.8738 37.9225ZM36.7252 44C37.0433 44.4678 37.9856 45.7643 39.4744 47.0383C41.2916 48.5933 43.7847 50 46.8596 50C49.9344 50 52.4275 48.5933 54.2447 47.0383C55.7335 45.7643 56.6758 44.4678 56.9939 44C56.6758 43.5322 55.7335 42.2357 54.2447 40.9617C52.4275 39.4067 49.9344 38 46.8596 38C43.7847 38 41.2916 39.4067 39.4744 40.9617C37.9856 42.2357 37.0433 43.5322 36.7252 44Z" fill="#D0103A"/>
<path fill-rule="evenodd" clip-rule="evenodd" d="M47.0508 47.9545C49.3168 47.9545 51.1538 46.1176 51.1538 43.8515C51.1538 43.431 51.0905 43.0252 50.9729 42.6432C50.6513 43.3557 49.9346 43.8515 49.1021 43.8515C47.9691 43.8515 47.0506 42.933 47.0506 41.8C47.0506 40.9676 47.5464 40.2509 48.2589 39.9293C47.8769 39.8118 47.4712 39.7485 47.0508 39.7485C44.7847 39.7485 42.9478 41.5855 42.9478 43.8515C42.9478 46.1176 44.7847 47.9545 47.0508 47.9545Z" fill="#D0103A"/>
</svg>
