<svg viewBox="0 0 64 64" fill="none" xmlns="http://www.w3.org/2000/svg">
<path fill-rule="evenodd" clip-rule="evenodd" d="M26 20L57 20V24H26V20Z" fill="#D0103A"/>
<path fill-rule="evenodd" clip-rule="evenodd" d="M20 14L20 8L24 8L24 14L20 14Z" fill="#D0103A"/>
<path fill-rule="evenodd" clip-rule="evenodd" d="M30 32L30 28L34 28L34 32L30 32Z" fill="#D0103A"/>
<path fill-rule="evenodd" clip-rule="evenodd" d="M38 32L38 28L42 28L42 32L38 32Z" fill="#D0103A"/>
<path fill-rule="evenodd" clip-rule="evenodd" d="M38 40L38 36L42 36L42 40L38 40Z" fill="#D0103A"/>
<path fill-rule="evenodd" clip-rule="evenodd" d="M46 32L46 28L50 28L50 32L46 32Z" fill="#D0103A"/>
<path fill-rule="evenodd" clip-rule="evenodd" d="M46 40L46 36L50 36L50 40L46 40Z" fill="#D0103A"/>
<path fill-rule="evenodd" clip-rule="evenodd" d="M48 14L48 8L52 8L52 14L48 14Z" fill="#D0103A"/>
<path fill-rule="evenodd" clip-rule="evenodd" d="M12.3235 17.0217C12.2856 17.0323 12.2486 17.0463 12.2129 17.0634L12.151 17.0931L12.0873 17.1185C9.78399 18.0362 8.59318 19.486 8.19443 21.3986C7.69675 23.8159 8.11522 27.4419 9.92393 31.7668C11.7136 36.0461 14.8045 40.8581 19.4161 45.5854C24.1319 50.182 28.9429 53.2694 33.2255 55.0621C37.5472 56.8712 41.1767 57.301 43.598 56.8168C45.5265 56.3951 46.951 55.2008 47.8902 52.9076L47.8926 52.9017C47.9335 52.8027 47.9602 52.7325 47.9784 52.6788C47.9465 52.6291 47.8933 52.5547 47.8069 52.4535C47.6208 52.2357 47.3225 51.9419 46.8515 51.5517L39.3214 46.4015C39.3195 46.4012 39.3181 46.4011 39.3171 46.401C39.311 46.4004 39.2851 46.3983 39.2284 46.4143C39.1007 46.4502 38.8172 46.5806 38.4003 46.9898L38.3164 47.0722L38.2234 47.1442C36.2017 48.709 34.0691 49.4219 31.9519 49.2289C29.8586 49.038 28.0635 47.9873 26.6374 46.5648L26.6359 46.5633L18.4331 38.3635C18.4321 38.3625 18.4311 38.3615 18.4301 38.3605C17.0418 36.9831 15.727 35.3469 15.4627 33.25C15.1904 31.0894 16.0889 28.9913 17.7843 26.8184L17.8238 26.7677L17.9465 26.6297L17.988 26.5882C18.4116 26.1648 18.5408 25.8858 18.5753 25.7666C18.5903 25.715 18.5884 25.6919 18.5878 25.6853C18.5876 25.683 18.5872 25.6786 18.5858 25.6717L13.4307 18.1276C12.9054 17.4922 12.5666 17.1891 12.3675 17.0511C12.3509 17.0395 12.3363 17.0298 12.3235 17.0217ZM12.3692 13C14.0618 13 15.3459 14.1502 16.5805 15.6602L16.6349 15.7268L22.0861 23.7043L22.15 23.8353C22.6199 24.7981 22.7167 25.8463 22.4174 26.8795C22.1428 27.8274 21.5703 28.6471 20.8843 29.348C19.5313 31.1024 19.352 32.1203 19.4313 32.7499C19.5195 33.45 19.9918 34.2757 21.25 35.5236L21.2555 35.5291L29.4622 43.7328C29.4627 43.7332 29.4631 43.7337 29.4636 43.7341C29.4637 43.7342 29.4635 43.7341 29.4636 43.7341C30.4136 44.6812 31.3832 45.1604 32.3151 45.2454C33.2058 45.3266 34.3321 45.0731 35.6928 44.0439C37.1367 42.6725 39.1225 41.8207 41.1797 42.8489L41.3019 42.91L49.2551 48.3496L49.3223 48.4046C50.487 49.3594 51.4032 50.3116 51.7949 51.428C52.2506 52.7268 51.8502 53.798 51.5905 54.4268C50.2217 57.7666 47.8284 59.994 44.4294 60.7295L44.4156 60.7325L44.4018 60.7353C40.9199 61.4374 36.4361 60.7424 31.6809 58.7518C26.8842 56.7439 21.6512 53.3541 16.6055 48.4316L16.5881 48.4146L16.5711 48.3972C11.6344 43.341 8.23956 38.1066 6.23364 33.3101C4.24507 28.5551 3.55904 24.073 4.27719 20.5892L4.27797 20.5854C4.97961 17.2149 7.19196 14.7807 10.5494 13.4256C11.0895 13.1769 11.6722 13.0332 12.2664 13.0026L12.3178 13H12.3692Z" fill="#D0103A"/>
<path fill-rule="evenodd" clip-rule="evenodd" d="M54 56H56C58.2091 56 60 54.2091 60 52V16C60 13.7909 58.2091 12 56 12H20V16L56 16V52H54V56Z" fill="#D0103A"/>
</svg>
