<svg width="20" height="16" viewBox="0 0 20 16" fill="none" xmlns="http://www.w3.org/2000/svg">
<path d="M9.99687 9.98865C11.7909 9.98865 13.2188 8.54192 13.2188 6.75712C13.2188 4.97232 11.7644 3.52558 9.99687 3.52558C8.20281 3.52558 6.775 4.97232 6.775 6.75712C6.74688 8.54068 8.20312 9.98865 9.99687 9.98865ZM11.5594 10.983H8.44063C5.9875 10.983 4 12.838 4 15.1249C4 15.5848 4.39687 15.9546 4.8875 15.9546H15.1125C15.6031 15.9546 16 15.5848 16 15.1249C16 12.838 14.0125 10.983 11.5594 10.983ZM16 5.01706C17.3806 5.01706 18.5 3.90405 18.5 2.53127C18.5 1.15849 17.3813 0.0454712 16 0.0454712C14.6194 0.0454712 13.5 1.15849 13.5 2.53127C13.5 3.90405 14.6187 5.01706 16 5.01706ZM5.74687 6.75712C5.74687 6.58781 5.77758 6.42682 5.79716 6.26276C5.45625 6.07663 5.08125 6.01138 4.68437 6.01138H2.7525C1.2325 6.01138 0 7.31021 0 8.91044C0 9.23048 0.246469 9.49149 0.550625 9.49149H6.785C6.14687 8.75197 5.74687 7.80426 5.74687 6.75712ZM4 5.01706C5.38062 5.01706 6.5 3.90405 6.5 2.53127C6.5 1.15849 5.38125 0.0454712 4 0.0454712C2.61937 0.0454712 1.5 1.15849 1.5 2.53127C1.5 3.90405 2.61937 5.01706 4 5.01706ZM17.2469 6.01138H15.3144C14.9144 6.01138 14.5369 6.10575 14.1938 6.26742C14.2125 6.43086 14.2437 6.58933 14.2437 6.75712C14.2437 7.80457 13.8444 8.75228 13.2075 9.49149H19.4481C19.7531 9.49149 20 9.23048 20 8.91044C20 7.31021 18.7688 6.01138 17.2469 6.01138Z" fill="#D0103A"/>
</svg>
