<svg width="45" viewBox="0 0 64 64" fill="none" xmlns="http://www.w3.org/2000/svg">
<path fill-rule="evenodd" clip-rule="evenodd" d="M16 56V8H36V19C36 21.2091 37.7909 23 40 23H48V30H52V13.9907C52 12.8462 51.5097 11.7565 50.6532 10.9974L43.8944 5.00661C43.1628 4.35809 42.2189 4 41.2412 4H16C13.7909 4 12 5.79086 12 8V56C12 58.2091 13.7909 60 16 60H52V56H16ZM48 19V13.9907L41.2412 8H40V19H48ZM28.5142 35.9225C30.7617 33.9993 34.1447 32 38.4999 32C42.8551 32 46.2382 33.9993 48.4856 35.9225C50.7194 37.8338 51.9682 39.7832 52.1176 40.0164L52.1262 40.0299L53.3595 42L52.1262 43.9701L52.1176 43.9836C51.9682 44.2168 50.7194 46.1662 48.4856 48.0775C46.2382 50.0007 42.8551 52 38.4999 52C34.1447 52 30.7617 50.0007 28.5142 48.0775C26.2805 46.1662 25.0317 44.2168 24.8823 43.9836L24.8736 43.9701L23.6404 42L24.8736 40.0299L24.8823 40.0164C25.0317 39.7832 26.2805 37.8338 28.5142 35.9225ZM28.3656 42C28.6837 42.4678 29.6259 43.7643 31.1148 45.0383C32.932 46.5933 35.4251 48 38.4999 48C41.5748 48 44.0678 46.5933 45.885 45.0383C47.3739 43.7643 48.3162 42.4678 48.6343 42C48.3162 41.5322 47.3739 40.2357 45.885 38.9617C44.0678 37.4067 41.5748 36 38.4999 36C35.4251 36 32.932 37.4067 31.1148 38.9617C29.6259 40.2357 28.6837 41.5322 28.3656 42ZM42.7941 41.8515C42.7941 44.1176 40.9572 45.9545 38.6911 45.9545C36.4251 45.9545 34.5881 44.1176 34.5881 41.8515C34.5881 39.5855 36.4251 37.7485 38.6911 37.7485C39.1116 37.7485 39.5173 37.8118 39.8993 37.9293C39.1868 38.2509 38.691 38.9676 38.691 39.8C38.691 40.933 39.6095 41.8515 40.7425 41.8515C41.575 41.8515 42.2917 41.3557 42.6133 40.6432C42.7309 41.0252 42.7941 41.431 42.7941 41.8515Z" fill="#D0103A"/>
</svg>
