<svg viewBox="0 0 64 64" fill="none" xmlns="http://www.w3.org/2000/svg">
<path fill-rule="evenodd" clip-rule="evenodd" d="M32 12C27.5817 12 24 15.5817 24 20C24 24.4183 27.5817 28 32 28C36.4183 28 40 24.4183 40 20C40 15.5817 36.4183 12 32 12ZM20 20C20 13.3726 25.3726 8 32 8C38.6274 8 44 13.3726 44 20C44 26.6274 38.6274 32 32 32C25.3726 32 20 26.6274 20 20Z" fill="#D0103A"/>
<path fill-rule="evenodd" clip-rule="evenodd" d="M9.13071 44.0209C12.2376 40.8997 18.7186 36 32 36C45.2894 36 52.2873 40.9103 55.098 44.177C55.7355 44.9178 56 45.8254 56 46.6667V52C56 54.2091 54.2091 56 52 56H12C9.79086 56 8 54.2091 8 52V46.7909C8 45.789 8.37511 44.78 9.13071 44.0209ZM12 46.8084V52H52V46.7101C49.9614 44.3915 44.11 40 32 40C19.956 40 14.46 44.3478 12 46.8084Z" fill="#D0103A"/>
</svg>
