<svg viewBox="0 0 64 64" fill="none" xmlns="http://www.w3.org/2000/svg">
<path fill-rule="evenodd" clip-rule="evenodd" d="M18 22C18 15.3726 23.3726 10 30 10C36.6274 10 42 15.3726 42 22C42 25.6835 40.3404 28.9793 37.7281 31.1806C38.042 31.0512 38.3833 30.967 38.7419 30.967C39.3602 30.967 40.1331 31.1172 40.9061 31.668C41.2797 31.91 41.5865 32.3146 41.8263 32.7769C44.419 29.9333 46 26.1513 46 22C46 13.1634 38.8366 6 30 6C21.1634 6 14 13.1634 14 22C14 26.2514 15.6581 30.1155 18.3629 32.9809C19.1997 32.5687 20.1483 32.3974 21.016 32.6192C22.4073 32.9697 23.5924 34.4216 24.2108 35.7734V32.5137C20.5081 30.4705 18 26.5282 18 22Z" fill="#D0103A"/>
<path fill-rule="evenodd" clip-rule="evenodd" d="M22.2106 22.0053C22.2106 18.6439 25.0157 16 28.3329 16C31.0345 16 34.2968 17.8734 34.6035 21.7473C34.6077 21.7998 34.6097 21.8525 34.6097 21.9051V27.9334C35.4714 28.0003 36.5264 28.2713 37.5319 28.9877C37.5808 29.0226 37.6281 29.0596 37.6736 29.0986C38.0049 29.017 38.3622 28.967 38.7417 28.967C39.6869 28.967 40.8724 29.1999 42.0336 30.0159C42.4405 30.287 42.7745 30.6241 43.0479 30.9792C43.1933 30.9728 43.3383 30.9697 43.4823 30.9697C43.561 30.9697 43.6395 30.9743 43.7176 30.9836C46.852 31.355 48.8162 33.7882 49.4839 36.3032C50.1484 38.7179 50.1231 41.3283 49.68 43.9651C49.239 46.5895 48.4151 49.2597 47.364 51.571C46.3457 53.8103 44.9819 56.0611 43.0471 57.4274C42.4593 57.8504 41.833 58 41.2666 58H27.3538C26.3479 58 25.6175 57.502 25.1872 57.0839C25.1504 57.0482 25.115 57.0111 25.0811 56.9726C20.8635 52.1918 17.4659 45.9677 14.7458 39.6146L14.7399 39.6008C14.0783 38.023 13.7777 36.4523 14.1837 34.8745C14.1938 34.8351 14.2051 34.796 14.2176 34.7573C14.6875 33.3046 15.815 32.1403 17.0356 31.4254C18.2629 30.7065 19.886 30.2672 21.5078 30.6807C21.7517 30.7423 21.9861 30.8219 22.2106 30.916V22.0053ZM28.3329 20C27.1155 20 26.2106 20.9608 26.2106 22.0053V35.7734C26.2106 36.7139 25.5553 37.5273 24.6363 37.7275C23.7173 37.9277 22.7831 37.4606 22.3918 36.6053C22.1639 36.107 21.8317 35.5965 21.4537 35.199C21.0639 34.7891 20.7339 34.6107 20.5273 34.5586L20.5204 34.5569C20.1852 34.4712 19.6455 34.5324 19.0573 34.8769C18.4946 35.2065 18.1591 35.6376 18.0419 35.9369C17.9504 36.3599 17.9803 36.9823 18.426 38.0474C20.9985 44.0545 24.1023 49.7082 27.7963 54H40.9519C41.9211 53.2223 42.8503 51.8338 43.7229 49.9151C44.6298 47.9208 45.3518 45.5844 45.7353 43.3023C46.116 41.0366 46.0912 39.0448 45.6252 37.3571L45.6193 37.3351C45.2656 35.995 44.3938 35.1425 43.3547 34.971C43.0092 34.9785 42.6839 35.0157 42.4101 35.0748C41.4746 35.2768 40.5271 34.7877 40.1499 33.9081C40.0645 33.709 39.9776 33.5559 39.9015 33.4504C39.8483 33.3765 39.8148 33.3458 39.8084 33.34C39.7871 33.326 39.7661 33.3116 39.7453 33.2968C39.3712 33.0302 39.0242 32.967 38.7417 32.967C38.6579 32.967 38.4728 33.0068 38.1801 33.1964C37.7223 33.4929 37.1633 33.5896 36.6325 33.4641C36.1018 33.3386 35.6453 33.0018 35.3688 32.5317C35.2986 32.4123 35.2054 32.2903 35.0919 32.1678C34.7703 31.9762 34.4318 31.9157 34.1556 31.9157C34.0115 31.9157 33.7713 31.9604 33.3342 32.1303C32.7189 32.3694 32.0252 32.2895 31.4804 31.9167C30.9355 31.5439 30.6097 30.9263 30.6097 30.2661V21.9952C30.4741 20.7053 29.4254 20 28.3329 20Z" fill="#D0103A"/>
</svg>
