<?xml version="1.0" encoding="utf-8"?>
<svg version="1.1" id="Layer_1" xmlns="http://www.w3.org/2000/svg" xmlns:xlink="http://www.w3.org/1999/xlink" x="0px" y="0px"
	 viewBox="0 0 24 24" style="enable-background:new 0 0 24 24;" xml:space="preserve">
<style type="text/css">
	.referral-st0{fill:none;stroke:currentColor;stroke-miterlimit:10;}
	.referral-st1{fill:none;}
	.referral-st2{fill:none;stroke:currentColor;stroke-linecap:square;stroke-miterlimit:10;}
	.referral-st3{fill:none;stroke:currentColor;stroke-linecap:square;stroke-miterlimit:10;}
</style>
<rect x="6.3" y="9.4" transform="matrix(0.7071 -0.7071 0.7071 0.7071 -5.8996 13.9807)" class="referral-st0 color-stroke" width="15.2" height="9.4"/>
<rect id="Rectangle_2199" x="-1" y="0.3" class="referral-st1" width="23.3" height="23.3"/>
<line class="referral-st2 color-stroke" x1="10.5" y1="15.4" x2="12.9" y2="12.8"/>
<line class="referral-st2 color-stroke" x1="12.1" y1="17.1" x2="15.4" y2="13.7"/>
<g>
	<path class="referral-st3 color-stroke" d="M5.5,2.4C5.4,2.3,5.1,2.1,5.1,2.1s-0.5,0-0.8,0.2L1.1,5.5c0,0-0.1,0.4,0,0.6l0.7,0.6C1.9,6.6,2,6.7,2,6.9
		c0,0.3,0,1,0.1,1.6s0.4,1.2,1,1.8c0.4,0.4,2.8,2.9,3.6,3.7c0.2,0.2,0.4,0.2,0.6,0l4.3-4.2c0.2-0.2,0.5-0.2,0.6,0l0.7,0.7
		c0,0,1,0.7,1.8-0.1C15.3,9.7,14.7,9,14.7,9L10,4.3c0,0-0.9-1-1.7-1.1C7.5,3,6.9,3,6.5,3.1C6.3,3.1,6,3,5.9,2.8L5.5,2.4z"/>
	<path class="referral-st3 color-stroke" d="M5.9,7.1l2.4-0.7c0.4-0.1,0.7,0.2,0.9,0.4l3.1,3.1"/>
</g>
<line class="referral-st2 color-stroke" x1="10.2" y1="11" x2="9.1" y2="9.9"/>
<line class="referral-st2 color-stroke" x1="8.5" y1="12.4" x2="7.5" y2="11.4"/>
</svg>
