<svg viewBox="0 0 64 64" fill="none" xmlns="http://www.w3.org/2000/svg">
<path fill-rule="evenodd" clip-rule="evenodd" d="M53.7891 33.0392L32.0391 54.7892L29.2106 51.9608L50.9606 30.2108L53.7891 33.0392Z" fill="#D0103A"/>
<path fill-rule="evenodd" clip-rule="evenodd" d="M34.25 33.625C33.3525 33.625 32.625 34.3525 32.625 35.25C32.625 36.1475 33.3525 36.875 34.25 36.875C35.1475 36.875 35.875 36.1475 35.875 35.25C35.875 34.3525 35.1475 33.625 34.25 33.625ZM28.625 35.25C28.625 32.1434 31.1434 29.625 34.25 29.625C37.3566 29.625 39.875 32.1434 39.875 35.25C39.875 38.3566 37.3566 40.875 34.25 40.875C31.1434 40.875 28.625 38.3566 28.625 35.25Z" fill="#D0103A"/>
<path fill-rule="evenodd" clip-rule="evenodd" d="M48.75 48.125C47.8525 48.125 47.125 48.8525 47.125 49.75C47.125 50.6475 47.8525 51.375 48.75 51.375C49.6475 51.375 50.375 50.6475 50.375 49.75C50.375 48.8525 49.6475 48.125 48.75 48.125ZM43.125 49.75C43.125 46.6434 45.6434 44.125 48.75 44.125C51.8566 44.125 54.375 46.6434 54.375 49.75C54.375 52.8566 51.8566 55.375 48.75 55.375C45.6434 55.375 43.125 52.8566 43.125 49.75Z" fill="#D0103A"/>
<path fill-rule="evenodd" clip-rule="evenodd" d="M49.1714 25.3431L31.9997 8.17139L8.58545 31.5856L11.4139 34.414L31.9997 13.8282L46.3429 28.1715L49.1714 25.3431ZM51.9998 33.8284L52.7889 33.0392L50.4605 30.7108L49.6714 31.4999L51.9998 33.8284Z" fill="#D0103A"/>
<path fill-rule="evenodd" clip-rule="evenodd" d="M18 52H26V56H14V27H18V52Z" fill="#D0103A"/>
</svg>
