<svg xmlns="http://www.w3.org/2000/svg" width="15.008" height="18" viewBox="0 0 15.008 18">
  <g id="preview_2_" data-name="preview (2)" transform="translate(-42.833)">
    <path id="Path_14" data-name="Path 14" d="M57.28,3.877c-.3,0-.541.638-.541.937v12.1H43.915V1.082h8.6V4.273a.541.541,0,0,0,.541.541H57.19a.77.77,0,0,0,.631-.379c.081-.207-.1-.406-.262-.558l-4-3.732L53.545.134,53.526.118,53.5.1,53.483.088l-.02-.012L53.438.061l-.02-.009L53.391.04,53.372.033l-.029-.01L53.322.017,53.293.01l-.027,0-.024,0-.053,0H43.374a.541.541,0,0,0-.541.541V17.459a.541.541,0,0,0,.541.541H57.28a.541.541,0,0,0,.541-.541V4.641C57.821,4.342,57.579,3.877,57.28,3.877ZM53.6,3.732V1.661l2.221,2.071Z" transform="translate(0)" fill="#d0103a"/>
    <g id="Group_5" data-name="Group 5" transform="translate(46.285 5.495)">
      <path id="Path_15" data-name="Path 15" d="M145.081,163.927a3.521,3.521,0,1,1,2.49-6.01h0a3.52,3.52,0,0,1-2.49,6.01Zm0-6.089a2.569,2.569,0,1,0,1.817.752A2.562,2.562,0,0,0,145.082,157.838Z" transform="translate(-141.562 -156.887)" fill="#d0103a"/>
      <path id="Path_16" data-name="Path 16" d="M312.68,328.394a.615.615,0,0,1-.423-.165L309.891,326a.539.539,0,0,1,0-.8.625.625,0,0,1,.845,0l2.366,2.226a.539.539,0,0,1,0,.8A.615.615,0,0,1,312.68,328.394Z" transform="translate(-304.437 -319.621)" fill="#d0103a"/>
    </g>
  </g>
</svg>
