<?xml version="1.0" encoding="UTF-8"?>
<svg width="24px" height="14px" viewBox="0 0 24 14" version="1.1" xmlns="http://www.w3.org/2000/svg" xmlns:xlink="http://www.w3.org/1999/xlink">
    <!-- Generator: Sketch 55 (78076) - https://sketchapp.com -->
    <title>ico-handshake</title>
    <desc>Created with Sketch.</desc>
    <g id="Page-1" stroke="none" stroke-width="1" fill="none" fill-rule="evenodd">
        <g id="Artboard" transform="translate(-106.000000, -143.000000)" fill="#666" fill-rule="nonzero">
            <g id="ico-handshake" transform="translate(106.000000, 143.000000)">
                <path d="M23.1662667,6.8201 L21,0.864266667 C20.9757333,0.771166667 20.9139,0.692066667 20.8296667,0.645866667 C20.7452,0.599666667 20.6451,0.590566667 20.5536333,0.619966667 L16.5634,2.18726667 C15.8869667,1.80856667 13.3249667,0.3955 12.5216,0.2618 C12.3888333,0.239633333 12.2462667,0.228433333 12.0983333,0.228433333 C11.3999667,0.228433333 10.7296,0.475766667 10.5518,0.546466667 C10.1392667,0.595 7.95643333,0.878966667 6.4869,1.61373333 C5.2066,0.953866667 4.18856667,0.1946 4.17806667,0.1869 C4.1006,0.129033333 4.0026,0.105 3.90786667,0.122266667 C3.81266667,0.138833333 3.72866667,0.194133333 3.6757,0.274633333 L0.1743,5.59603333 C0.0709333333,5.75306667 0.110133333,5.96376667 0.2632,6.0732 L4.68113333,9.22856667 C4.52853333,9.58393333 4.5206,9.94093333 4.6627,10.2641 C4.90676667,10.8196667 5.51576667,11.1335 5.83846667,11.2658 C6.08603333,12.2651667 6.71953333,12.4210333 7.08983333,12.4210333 C7.21396667,12.4210333 7.33016667,12.4037667 7.43143333,12.3799667 C7.78493333,13.1625667 8.27213333,13.3382667 8.63823333,13.3380333 C8.63823333,13.3380333 8.63823333,13.3380333 8.63846667,13.3380333 C8.82676667,13.3380333 8.99476667,13.2904333 9.12846667,13.2335 C9.34663333,13.4775667 9.73466667,13.8019 10.2991,13.8723667 C10.3581333,13.8798333 10.4139,13.8831 10.4659333,13.8831 C10.8077667,13.8831 11.0189333,13.7384333 11.1358333,13.6168667 C11.2952,13.4512 11.3624,13.2465667 11.3904,13.0907 L12.1699667,13.6374 L12.1909667,13.6509333 C12.2595667,13.6922333 12.7502667,13.9752667 13.2722333,13.9752667 C13.4285667,13.9752667 13.5879333,13.9500667 13.7391333,13.8847333 C13.9216,13.8063333 14.1474667,13.6451 14.2944667,13.3130667 C14.5919667,13.3282333 15.0465,13.2969667 15.4298667,13.0305 C15.7210667,12.8284333 15.9194,12.5344333 16.0211333,12.1548 C16.3172333,12.1291333 16.7619667,12.0334667 17.1112667,11.7145 C17.3709667,11.4772 17.5329,11.1645333 17.5945,10.7814 C17.9062333,10.7767333 18.3460667,10.7074333 18.6813667,10.4050333 C19.0017333,10.1164 19.152,9.69243333 19.1333333,9.14736667 L22.9845,7.22166667 C23.1324333,7.14793333 23.2082667,6.98016667 23.1662667,6.8201 Z M5.30296667,9.9813 C5.2353,9.8266 5.24603333,9.66513333 5.3368,9.4731 C5.55543333,9.0104 5.81676667,8.7339 6.0361,8.7339 C6.1677,8.7339 6.32706667,8.8305 6.49716667,9.0083 C6.2293,9.3415 5.8863,9.86883333 5.79436667,10.4617333 C5.5923,10.3420333 5.38953333,10.1796333 5.30296667,9.9813 Z M6.48526667,10.9433333 L6.48503333,10.9412333 C6.3903,10.4204333 6.71323333,9.8742 6.98203333,9.52396667 L7.2219,9.2974 C7.37496667,9.15296667 7.70373333,8.92383333 7.93473333,8.92383333 C8.13516667,8.92383333 8.24156667,9.18936667 8.29896667,9.46143333 C8.00053333,9.81633333 7.28746667,10.7639 7.27906667,11.6960667 C7.2219,11.7100667 7.15726667,11.7208 7.0896,11.7208 C6.9741,11.7210333 6.62246667,11.7210333 6.48526667,10.9433333 Z M8.63823333,12.6382667 C8.32416667,12.6385 8.1144,12.2439333 7.98816667,11.8876333 L7.9905,11.8871667 C7.86403333,11.1920667 8.56403333,10.2193 8.89116667,9.8462 C8.946,9.8217 9.05753333,9.7804 9.1882,9.7804 C9.39866667,9.7804 9.58206667,9.89753333 9.73746667,10.1241 C9.5872,10.2008667 9.4493,10.3126333 9.32773333,10.4582333 C8.92056667,10.9463667 8.73366667,11.7868333 8.83773333,12.5946333 C8.77706667,12.6184333 8.7087,12.6382667 8.63823333,12.6382667 Z M10.7333333,12.8802333 C10.7333333,12.9353 10.7039333,13.0694667 10.6414,13.1331667 C10.6290333,13.1455333 10.5858667,13.1833333 10.4713,13.1833333 C10.4463333,13.1833333 10.4167,13.1814667 10.3884667,13.1782 C9.9148,13.1189333 9.62686667,12.7507333 9.54986667,12.6389667 C9.43273333,11.9952 9.56503333,11.2667333 9.8658,10.9064667 C9.98106667,10.7681 10.1061333,10.7009 10.2487,10.7006667 C10.2956,10.7027667 10.6605333,10.7384667 10.8460333,11.3621667 L10.7235333,12.8387 L10.7333333,12.8615667 L10.7333333,12.8802333 Z M18.2144667,9.88353333 C18.0138,10.0655333 17.6871333,10.0909667 17.4794667,10.0804667 L14.8117667,7.6608 C14.6689667,7.53153333 14.4473,7.5418 14.3173333,7.68506667 C14.1873667,7.8281 14.1983333,8.04976667 14.3416,8.1795 L16.9152667,10.5142333 C16.8975333,10.8103333 16.8088667,11.0418 16.6420333,11.1953333 C16.4203667,11.3995 16.1100333,11.4496667 15.9238333,11.4606333 L13.4178333,9.0671 C13.2778333,8.93386667 13.0566333,8.93876667 12.9229333,9.07853333 C12.7894667,9.21853333 12.7946,9.43996667 12.9343667,9.57343333 L15.3601,11.8904333 C15.3066667,12.1475667 15.2016667,12.3356333 15.0334333,12.4537 C14.8684667,12.5692 14.6689667,12.6060667 14.4988667,12.6142333 C14.4897667,12.6030333 14.4851,12.5897333 14.4746,12.5797 L12.2924667,10.5095667 C12.1524667,10.3768 11.9308,10.3821667 11.7975667,10.5226333 C11.6645667,10.6628667 11.6704,10.8843 11.8106333,11.0173 L13.7165,12.8254 L13.7099667,12.8555 C13.6411333,13.1649 13.5076667,13.2227667 13.4635667,13.2416667 C13.1905667,13.3606667 12.7180667,13.1474 12.5603333,13.0566333 L11.4643667,12.2882667 L11.5542,11.3003333 L11.5385667,11.2406 C11.3316,10.458 10.8600333,10.1346 10.4927667,10.0361333 C10.094,9.2099 9.51276667,9.08063333 9.18843333,9.08063333 C9.0958,9.08063333 9.00853333,9.09043333 8.92943333,9.1056 C8.69703333,8.34913333 8.22243333,8.2243 7.93473333,8.2243 C7.59173333,8.2243 7.2604,8.39953333 7.0329,8.5561 C6.71183333,8.2096 6.37746667,8.03436667 6.03633333,8.03436667 C5.66673333,8.03436667 5.3277,8.23783333 5.03533333,8.6219 L0.944066667,5.6994 L4.06,0.9632 C4.49073333,1.26326667 5.33773333,1.82303333 6.3322,2.32003333 C6.43463333,2.37136667 6.55573333,2.36926667 6.6563,2.3142 C7.4151,1.90026667 8.4679,1.6261 9.30813333,1.4574 C9.09393333,1.65503333 8.84986667,1.89303333 8.56986667,2.18516667 C7.4263,3.3789 7.92446667,4.1027 7.99726667,4.19626667 C8.27843333,4.52246667 8.66343333,4.6949 9.11073333,4.69466667 C10.0919,4.69466667 11.1755,3.86213333 11.4881667,3.6036 L12.3354,3.50956667 C12.9119667,5.49943333 15.1554667,6.35366667 15.6368333,6.5156 L18.3782667,9.2568 C18.3941333,9.27266667 18.4144333,9.28083333 18.4324,9.29273333 C18.4235333,9.5585 18.3521333,9.75823333 18.2144667,9.88353333 Z M18.6953667,8.58363333 L16.0727,5.9612 C16.0316333,5.92013333 15.9812333,5.89003333 15.9257,5.87346667 C15.8998,5.86553333 13.3247333,5.07103333 12.9483667,3.0632 C12.9168667,2.89613333 12.7710333,2.7776 12.6044333,2.7776 C12.5916,2.7776 12.5787667,2.7783 12.5654667,2.7797 L11.305,2.9197 C11.2333667,2.92763333 11.1657,2.95773333 11.1115667,3.00533333 C10.8000667,3.28043333 9.83313333,3.99466667 9.11073333,3.99466667 C8.8739,3.99466667 8.694,3.92046667 8.54723333,3.76133333 C8.52273333,3.6995 8.42683333,3.346 9.07526667,2.66933333 C10.2582667,1.43476667 10.7594667,1.21706667 10.7583,1.21706667 C10.766,1.2145 10.7734667,1.21146667 10.7809333,1.2082 C10.7874667,1.2054 11.4426667,0.927966667 12.0978667,0.927966667 C12.2075333,0.927966667 12.3111333,0.9359 12.4061,0.951766667 C12.9775333,1.04696667 15.0794,2.15226667 16.3527,2.87186667 C16.4378667,2.9204 16.5398333,2.93043333 16.6327,2.90033333 L20.4166667,1.4 L22.4170333,6.72303333 L18.6953667,8.58363333 Z" id="Shape"></path>
            </g>
        </g>
    </g>
</svg>