<svg width="64" height="64" viewBox="0 0 64 64" fill="none" xmlns="http://www.w3.org/2000/svg">
<path fill-rule="evenodd" clip-rule="evenodd" d="M16 8C13.7909 8 12 9.79086 12 12V52C12 54.2091 13.7909 56 16 56H48C50.2091 56 52 54.2091 52 52V12C52 9.79086 50.2091 8 48 8H16ZM16 52V12H20V52L16 52ZM24 52L48 52V12H24V52Z" fill="#D0103A"/>
<path d="M36.0177 34.9628C36.8819 35.8249 38.0285 36.0757 39.2719 35.1133C39.6863 34.7065 40.0952 34.5913 40.4669 34.7771L43.2917 36.7092C44.1076 37.378 44.0686 37.6641 43.905 38.0598C43.485 39.0853 42.7899 39.7076 41.8198 39.9176C39.6733 40.3504 35.9157 39.1008 32.3641 35.636C28.8888 32.0765 27.6434 28.3249 28.0858 26.1792C28.2865 25.215 28.9091 24.5072 29.9442 24.0947C30.0606 24.0388 30.187 24.0066 30.3159 24C30.5687 24 30.8437 24.1616 31.2842 24.7004L33.2188 27.5317C33.4047 27.9125 33.2876 28.3138 32.8732 28.7281L32.8583 28.7448C31.7321 30.1883 32.0703 31.0243 33.033 31.9792L36.0177 34.9628Z" fill="#D0103A"/>
<path fill-rule="evenodd" clip-rule="evenodd" d="M30.1212 24.5081C30.107 24.5121 30.0931 24.5173 30.0797 24.5237L30.0565 24.5349L30.0326 24.5444C29.1689 24.8885 28.7224 25.4322 28.5728 26.1494C28.3862 27.0558 28.5431 28.4155 29.2214 30.0373C29.8925 31.642 31.0515 33.4464 32.7808 35.2191C34.5491 36.9428 36.3532 38.1005 37.9591 38.7728C39.5796 39.4512 40.9406 39.6123 41.8486 39.4308C42.5717 39.2726 43.1059 38.8248 43.4581 37.9649L43.459 37.9627C43.4743 37.9255 43.4843 37.8992 43.4911 37.8791C43.4792 37.8604 43.4592 37.8325 43.4268 37.7946C43.3571 37.7129 43.2452 37.6027 43.0686 37.4564L40.2449 35.5252C40.2442 35.5251 40.2437 35.525 40.2433 35.525C40.241 35.5248 40.2313 35.524 40.21 35.5299C40.1621 35.5434 40.0558 35.5923 39.8995 35.7458L39.868 35.7767L39.8332 35.8037C39.0751 36.3904 38.2754 36.6578 37.4815 36.5854C36.6965 36.5138 36.0234 36.1198 35.4886 35.5864L35.4881 35.5858L32.4122 32.511C32.4118 32.5106 32.4114 32.5103 32.411 32.5099C31.8905 31.9934 31.3974 31.3798 31.2983 30.5935C31.1962 29.7833 31.5331 28.9966 32.1689 28.1817L32.1837 28.1627L32.2297 28.111L32.2453 28.0954C32.4041 27.9366 32.4526 27.832 32.4655 27.7873C32.4711 27.768 32.4704 27.7593 32.4702 27.7568C32.4701 27.756 32.47 27.7543 32.4694 27.7517L30.5364 24.9228C30.3394 24.6845 30.2123 24.5709 30.1377 24.5191C30.1314 24.5148 30.126 24.5111 30.1212 24.5081ZM30.1383 23C30.773 23 31.2545 23.4313 31.7175 23.9976L31.7379 24.0225L33.782 27.014L33.8059 27.0631C33.9821 27.4241 34.0184 27.8172 33.9062 28.2046C33.8033 28.5601 33.5886 28.8675 33.3313 29.1303C32.824 29.7882 32.7567 30.1699 32.7865 30.406C32.8196 30.6685 32.9967 30.9781 33.4684 31.4461L33.4705 31.4481L36.5479 34.5244C36.5481 34.5246 36.5482 34.5248 36.5484 34.5249C36.5484 34.5249 36.5484 34.5249 36.5484 34.5249C36.9047 34.8801 37.2682 35.0598 37.6177 35.0916C37.9517 35.1221 38.374 35.027 38.8843 34.6411C39.4257 34.1268 40.1703 33.8074 40.9418 34.193L40.9876 34.2159L43.9699 36.2557L43.9951 36.2763C44.4318 36.6343 44.7754 36.9914 44.9223 37.41C45.0931 37.8968 44.9432 38.2983 44.8458 38.5342C44.3325 39.7868 43.435 40.6221 42.1603 40.898L42.1552 40.8991L42.15 40.9002C40.8443 41.1634 39.163 40.9028 37.3799 40.1564C35.5812 39.4034 33.6189 38.1323 31.7268 36.2864L31.7203 36.28L31.7139 36.2735C29.8628 34.3775 28.5898 32.4147 27.8376 30.6161C27.0919 28.833 26.8346 27.1522 27.1039 25.8459L27.1042 25.8444C27.3673 24.5805 28.1969 23.6677 29.4559 23.1596C29.6584 23.0663 29.8769 23.0125 30.0998 23.001L30.119 23H30.1383Z" fill="#D0103A"/>
</svg>
