<svg width="40" viewBox="0 0 64 64" fill="none" xmlns="http://www.w3.org/2000/svg">
<path fill-rule="evenodd" clip-rule="evenodd" d="M16 56V8H36V19C36 21.2091 37.7909 23 40 23H48V30H52V13.9907C52 12.8462 51.5097 11.7565 50.6532 10.9974L43.8944 5.00661C43.1628 4.35809 42.2189 4 41.2412 4H16C13.7909 4 12 5.79086 12 8V56C12 58.2091 13.7909 60 16 60L37 60V56L16 56ZM48 19V13.9907L41.2412 8H40V19H48Z" fill="#D0103A"/>
<path fill-rule="evenodd" clip-rule="evenodd" d="M58.3911 36.4369L41.5052 52.7836L32.6089 44.1713L35.3911 41.2974L41.5052 47.2163L55.6089 33.563L58.3911 36.4369Z" fill="#D0103A"/>
</svg>
