<?xml version="1.0" encoding="utf-8"?>
<svg version="1.1" id="Layer_1" xmlns="http://www.w3.org/2000/svg" xmlns:xlink="http://www.w3.org/1999/xlink" x="0px" y="0px"
	 viewBox="0 0 24 24" style="enable-background:new 0 0 24 24;" xml:space="preserve">
<style type="text/css">
	.requirements-st0{fill:none;}
	.requirements-st1{fill:currentColor;}
</style>
<path class="requirements-st0" d="M0,0h24v24H0V0z"/>
<polygon class="requirements-st1 color-fill" points="19.8,13.3 19.8,19.8 4.2,19.8 4.2,4.2 15.5,4.2 15.5,1.9 4.2,1.9 1.9,1.9 1.9,4.2 1.9,19.8 1.9,22.1
	4.2,22.1 19.8,22.1 22.1,22.1 22.1,19.8 22.1,13.3 "/>
<polygon class="requirements-st1 color-fill" points="22.6,4.4 20.7,2.7 17.4,6.7 13.8,11 9.2,7.1 7.6,9 12.2,12.9 12.3,12.9 12.3,12.9 13.3,13.8 14.1,14.5
	14.1,14.5 14.2,14.5 "/>
</svg>
