<svg viewBox="0 0 64 64" fill="none" xmlns="http://www.w3.org/2000/svg">
<path fill-rule="evenodd" clip-rule="evenodd" d="M51.9936 18.0058L47.7341 20.1001L53.7081 31.3499L57.9676 29.2556L51.9936 18.0058ZM50.2435 14.409C51.168 13.9544 52.2338 13.8759 53.2144 14.1879C54.1958 14.5002 55.0233 15.1823 55.5099 16.0987L61.5435 27.4608L59.7771 28.3988L61.5435 27.4608C61.79 27.925 61.9407 28.4344 61.9857 28.9591C62.0307 29.4838 61.9689 30.0117 61.8044 30.5116C61.64 31.0113 61.3766 31.4717 61.0314 31.8666C60.6863 32.2614 60.2664 32.5827 59.7975 32.8132L53.7333 35.7948C52.7638 36.2714 51.5911 35.8921 51.0844 34.938L43.2336 20.1537C42.9798 19.6757 42.9305 19.1151 43.0971 18.6002C43.2637 18.0852 43.6318 17.6597 44.1176 17.4209L50.2435 14.409Z" fill="#D0103A"/>
<path fill-rule="evenodd" clip-rule="evenodd" d="M12.0064 17.0058L6.03244 28.2556L10.2919 30.3499L16.2659 19.1001L12.0064 17.0058ZM13.7565 13.409L12.9689 15.0109L13.7565 13.409L19.8824 16.4209C20.3682 16.6597 20.7364 17.0852 20.9029 17.6002C21.0695 18.1151 21.0202 18.6756 20.7664 19.1537L12.9156 33.938C12.4089 34.8921 11.2362 35.2714 10.2667 34.7948L4.20252 31.8132C3.73356 31.5827 3.3137 31.2614 2.96858 30.8666C2.62338 30.4718 2.36002 30.0113 2.19556 29.5116C2.03107 29.0117 1.96926 28.4838 2.01426 27.9591C2.05926 27.4344 2.21002 26.925 2.45652 26.4608L8.49011 15.0987C8.49011 15.0987 8.49012 15.0987 8.49012 15.0987C8.97673 14.1823 9.80421 13.5002 10.7856 13.1879C11.7662 12.8759 12.832 12.9544 13.7565 13.409Z" fill="#D0103A"/>
<path fill-rule="evenodd" clip-rule="evenodd" d="M9.42191 31.7714C10.1004 30.8998 11.357 30.7433 12.2286 31.4218L25.2579 41.5646L39.0248 44.991L47.7155 36.3392L51.4827 31.9517C52.2023 31.1137 53.4649 31.0176 54.303 31.7372C55.141 32.4568 55.2371 33.7194 54.5175 34.5575L50.6993 39.0043C50.6654 39.0438 50.6299 39.082 50.593 39.1188L41.8118 47.8607C41.334 48.3364 40.7414 48.68 40.0921 48.859C39.4429 49.0381 38.7583 49.0467 38.1048 48.884L24.2742 45.4418C23.744 45.3099 23.2471 45.0684 22.8157 44.7326L9.77153 34.5781C8.89993 33.8996 8.7434 32.643 9.42191 31.7714ZM38.9897 45.0259C38.9898 45.0258 38.9899 45.0258 38.99 45.0257L38.9897 45.0259Z" fill="#D0103A"/>
<path fill-rule="evenodd" clip-rule="evenodd" d="M35.3724 21H45.1472C46.2518 21 47.1472 20.1046 47.1472 19C47.1472 17.8954 46.2518 17 45.1472 17H35.35C34.8381 17 34.3307 17.0994 33.8564 17.2932C33.382 17.487 32.9492 17.7717 32.5834 18.1326L23.1598 27.427C22.7606 27.8207 22.4501 28.2962 22.2511 28.8222C22.052 29.3482 21.9696 29.9113 22.01 30.4729C22.0505 31.0344 22.2128 31.5796 22.4846 32.0714C22.7564 32.5631 23.1309 32.9893 23.5812 33.3223L24.8865 34.2879C26.5664 35.5306 28.606 36.2 30.6992 36.2C32.7924 36.2 34.8321 35.5306 36.512 34.2879L38.4229 32.8743L47.8343 39.6251C48.7318 40.269 49.9813 40.0633 50.6251 39.1657C51.269 38.2682 51.0633 37.0187 50.1657 36.3749L39.5705 28.7749C38.865 28.2688 37.9135 28.2757 37.2154 28.7921L34.1332 31.0721C33.1455 31.8027 31.9405 32.2 30.6992 32.2C29.4579 32.2 28.253 31.8027 27.2653 31.0721L26.0625 30.1824L35.3724 21ZM25.9687 30.2749L25.9688 30.2747Z" fill="#D0103A"/>
<path fill-rule="evenodd" clip-rule="evenodd" d="M31.8803 17.0068L40.1643 20.817C41.1678 21.2786 42.3555 20.8392 42.8171 19.8357C43.2786 18.8322 42.8393 17.6445 41.8358 17.183L33.5174 13.357C32.6592 12.9622 31.6877 12.892 30.7811 13.1606L31.3493 15.0782L30.781 13.1606L18.4318 16.8203C17.3727 17.1341 16.7686 18.2471 17.0825 19.3061C17.3963 20.3651 18.5093 20.9693 19.5683 20.6554L31.8803 17.0068ZM31.846 16.991L31.8461 16.9911Z" fill="#D0103A"/>
<path fill-rule="evenodd" clip-rule="evenodd" d="M13.5194 43.6554C14.262 42.8377 15.5269 42.7768 16.3446 43.5194L21.5523 48.2488L28.5054 50.0649C29.5742 50.3441 30.2142 51.4367 29.9351 52.5054C29.656 53.5742 28.5633 54.2142 27.4946 53.9351L20.4979 52.1076C20.4979 52.1076 20.4979 52.1076 20.4979 52.1076C19.8963 51.9505 19.3465 51.6489 18.8908 51.2351C18.8908 51.2351 18.8908 51.2351 18.8908 51.2351L13.6554 46.4806C12.8377 45.738 12.7768 44.4731 13.5194 43.6554Z" fill="#D0103A"/>
</svg>
