<svg viewBox="0 0 64 64" fill="none" xmlns="http://www.w3.org/2000/svg">
<path fill-rule="evenodd" clip-rule="evenodd" d="M32 8.17139L55.4142 31.5856L54.9998 32H50.1718L50 31.8282V32H46V27.8282L32 13.8282L18 27.8283V52H36V56H14V31.8283L11.4142 34.414L8.58582 31.5856L32 8.17139Z" fill="#D0103A"/>
<path fill-rule="evenodd" clip-rule="evenodd" d="M36.8738 37.9225C39.1213 35.9993 42.5044 34 46.8596 34C51.2147 34 54.5978 35.9993 56.8453 37.9225C59.079 39.8338 60.3278 41.7832 60.4772 42.0164L60.4858 42.0299L61.7191 44L60.4858 45.9701L60.4772 45.9836C60.3278 46.2168 59.079 48.1662 56.8453 50.0775C54.5978 52.0007 51.2147 54 46.8596 54C42.5044 54 39.1213 52.0007 36.8738 50.0775C34.6401 48.1662 33.3913 46.2168 33.2419 45.9836L33.2333 45.9701L32 44L33.2333 42.0299L33.2419 42.0164C33.3913 41.7832 34.6401 39.8338 36.8738 37.9225ZM36.7252 44C37.0433 44.4678 37.9856 45.7643 39.4744 47.0383C41.2916 48.5933 43.7847 50 46.8596 50C49.9344 50 52.4275 48.5933 54.2447 47.0383C55.7335 45.7643 56.6758 44.4678 56.9939 44C56.6758 43.5322 55.7335 42.2357 54.2447 40.9617C52.4275 39.4067 49.9344 38 46.8596 38C43.7847 38 41.2916 39.4067 39.4744 40.9617C37.9856 42.2357 37.0433 43.5322 36.7252 44Z" fill="#D0103A"/>
<path fill-rule="evenodd" clip-rule="evenodd" d="M47.0508 47.9545C49.3168 47.9545 51.1538 46.1176 51.1538 43.8515C51.1538 43.431 51.0905 43.0252 50.9729 42.6432C50.6513 43.3557 49.9346 43.8515 49.1021 43.8515C47.9691 43.8515 47.0506 42.933 47.0506 41.8C47.0506 40.9676 47.5464 40.2509 48.2589 39.9293C47.8769 39.8118 47.4712 39.7485 47.0508 39.7485C44.7847 39.7485 42.9478 41.5855 42.9478 43.8515C42.9478 46.1176 44.7847 47.9545 47.0508 47.9545Z" fill="#D0103A"/>
</svg>
