<svg viewBox="0 0 64 64" fill="none" xmlns="http://www.w3.org/2000/svg">
<path fill-rule="evenodd" clip-rule="evenodd" d="M36.414 16.0002L27.9998 24.4144L36.414 32.8286L39.2424 30.0002L35.6568 26.4146L49.8281 26.4146L49.8281 22.4146L35.6565 22.4145L39.2424 18.8286L36.414 16.0002Z" fill="#D0103A"/>
<path fill-rule="evenodd" clip-rule="evenodd" d="M27.4142 47.8284L35.8284 39.4142L27.4142 31L24.5857 33.8284L28.1714 37.4141L14 37.4141V41.4141L28.1717 41.4141L24.5857 45L27.4142 47.8284Z" fill="#D0103A"/>
<path fill-rule="evenodd" clip-rule="evenodd" d="M8 12H27V18H31V8H4V56H31V49H27V52H8V12Z" fill="#D0103A"/>
<path fill-rule="evenodd" clip-rule="evenodd" d="M37 12H56V52H37V46H33V56H60V8H33V15H37V12Z" fill="#D0103A"/>
</svg>
