<svg width="200" height="40" viewBox="0 0 200 40" fill="none" xmlns="http://www.w3.org/2000/svg">
<g clip-path="url(#clip0_830_10)">
<path d="M37.6843 31.384C35.8496 31.384 34.2709 31.0427 32.9483 30.36C31.6469 29.656 30.6443 28.6747 29.9403 27.416C29.2576 26.136 28.9163 24.632 28.9163 22.904H34.1003C34.1003 24.248 34.3883 25.2827 34.9643 26.008C35.5616 26.712 36.4683 27.064 37.6843 27.064C38.6443 27.064 39.4016 26.8613 39.9563 26.456C40.5323 26.0293 40.8203 25.432 40.8203 24.664C40.8203 24.088 40.6069 23.64 40.1803 23.32C39.7749 22.9787 39.2203 22.7013 38.5163 22.488C37.8336 22.2533 37.0763 22.04 36.2443 21.848C35.4336 21.6347 34.6123 21.3787 33.7803 21.08C32.9696 20.7813 32.2123 20.3867 31.5083 19.896C30.8256 19.4053 30.2709 18.7653 29.8443 17.976C29.4389 17.1867 29.2363 16.184 29.2363 14.968C29.2363 13.7093 29.5776 12.5787 30.2603 11.576C30.9643 10.5733 31.9349 9.77333 33.1723 9.176C34.4096 8.57867 35.8603 8.28 37.5243 8.28C39.0389 8.28 40.4469 8.57867 41.7483 9.176C43.0496 9.752 44.1056 10.5947 44.9163 11.704C45.7269 12.8133 46.1536 14.1787 46.1963 15.8H40.9163C40.8736 15.0747 40.6816 14.4773 40.3403 14.008C40.0203 13.5387 39.6043 13.1867 39.0923 12.952C38.6016 12.7173 38.0789 12.6 37.5243 12.6C36.7349 12.6 36.0629 12.792 35.5083 13.176C34.9536 13.5387 34.6763 14.0827 34.6763 14.808C34.6763 15.3627 34.8789 15.8 35.2843 16.12C35.7109 16.44 36.2656 16.7067 36.9483 16.92C37.6523 17.112 38.4096 17.304 39.2203 17.496C40.0523 17.688 40.8736 17.9333 41.6843 18.232C42.5163 18.5093 43.2736 18.904 43.9563 19.416C44.6603 19.928 45.2149 20.6107 45.6203 21.464C46.0469 22.296 46.2603 23.3627 46.2603 24.664C46.2603 25.9653 45.8869 27.128 45.1403 28.152C44.4149 29.1547 43.4016 29.944 42.1003 30.52C40.8203 31.096 39.3483 31.384 37.6843 31.384ZM56.7368 19.384L58.3368 23.96L59.9688 19.384L62.5608 13.208H67.6488L59.7768 31.864C59.2434 33.144 58.6248 34.1573 57.9208 34.904C57.2381 35.672 56.4594 36.2267 55.5848 36.568C54.7101 36.9093 53.7074 37.08 52.5768 37.08H49.2808V33.048H52.0328C52.6301 33.048 53.1314 32.9093 53.5368 32.632C53.9634 32.3547 54.3261 31.9813 54.6248 31.512C54.9448 31.064 55.2328 30.552 55.4888 29.976L55.8088 29.24L49.0888 13.208H54.2088L56.7368 19.384ZM82.6693 31V20.024C82.6693 19.1067 82.4346 18.3707 81.9653 17.816C81.4959 17.2613 80.8773 16.984 80.1093 16.984C79.2346 16.984 78.4239 17.2827 77.6773 17.88C76.9519 18.456 76.1839 19.4587 75.3733 20.888L74.6693 16.664C75.4799 15.2773 76.4613 14.296 77.6133 13.72C78.7653 13.1227 79.9386 12.824 81.1333 12.824C82.4986 12.824 83.6613 13.112 84.6213 13.688C85.6026 14.264 86.3493 15.064 86.8612 16.088C87.3946 17.112 87.6613 18.3173 87.6613 19.704V31H82.6693ZM70.7973 31V13.208H75.6293L75.7893 16.376V31H70.7973ZM100.25 31.384C98.3724 31.384 96.7511 31.0107 95.3858 30.264C94.0418 29.5173 93.0071 28.4507 92.2818 27.064C91.5778 25.6773 91.2258 24.024 91.2258 22.104C91.2258 20.1413 91.5991 18.4667 92.3458 17.08C93.1138 15.6933 94.1804 14.6373 95.5458 13.912C96.9111 13.1867 98.5218 12.824 100.378 12.824C101.999 12.824 103.428 13.112 104.666 13.688C105.924 14.264 106.916 15.0747 107.642 16.12C108.388 17.144 108.794 18.3707 108.858 19.8H103.866C103.695 18.8187 103.311 18.0933 102.714 17.624C102.138 17.1333 101.359 16.888 100.378 16.888C99.5671 16.888 98.8418 17.0907 98.2018 17.496C97.5831 17.9013 97.0924 18.488 96.7298 19.256C96.3884 20.024 96.2178 20.9733 96.2178 22.104C96.2178 23.7893 96.6018 25.0907 97.3698 26.008C98.1591 26.9253 99.1191 27.384 100.25 27.384C100.911 27.384 101.487 27.2667 101.978 27.032C102.49 26.7973 102.916 26.4667 103.258 26.04C103.599 25.592 103.834 25.0907 103.962 24.536H108.954C108.826 25.9227 108.378 27.128 107.61 28.152C106.842 29.176 105.828 29.976 104.57 30.552C103.311 31.1067 101.871 31.384 100.25 31.384ZM124.294 31V20.056C124.294 19.1173 124.06 18.3707 123.59 17.816C123.121 17.2613 122.502 16.984 121.734 16.984C120.86 16.984 120.049 17.2827 119.302 17.88C118.577 18.456 117.809 19.4587 116.998 20.888L116.294 16.696C117.105 15.288 118.086 14.296 119.238 13.72C120.39 13.1227 121.564 12.824 122.758 12.824C124.124 12.824 125.286 13.112 126.246 13.688C127.228 14.264 127.974 15.0747 128.486 16.12C129.02 17.144 129.286 18.3493 129.286 19.736V31H124.294ZM112.422 31V7.288H117.414V31H112.422ZM145.427 22.104V19.704C145.427 18.8933 145.213 18.2427 144.787 17.752C144.36 17.24 143.72 16.984 142.867 16.984C141.907 16.984 141 17.304 140.147 17.944C139.293 18.584 138.483 19.6933 137.715 21.272L137.203 17.08C137.757 16.1413 138.365 15.3627 139.027 14.744C139.688 14.104 140.413 13.624 141.203 13.304C142.013 12.984 142.899 12.824 143.859 12.824C145.757 12.824 147.325 13.4107 148.563 14.584C149.8 15.736 150.419 17.4427 150.419 19.704V22.104H145.427ZM133.555 31V13.208H138.355L138.547 16.408V31H133.555ZM162.431 31.384C160.533 31.384 158.901 31.0107 157.535 30.264C156.17 29.5173 155.114 28.4507 154.367 27.064C153.642 25.6773 153.279 24.024 153.279 22.104C153.279 20.1627 153.642 18.5093 154.367 17.144C155.114 15.7573 156.17 14.6907 157.535 13.944C158.901 13.1973 160.533 12.824 162.431 12.824C165.29 12.824 167.519 13.6453 169.119 15.288C170.741 16.9307 171.551 19.2027 171.551 22.104C171.551 24.024 171.189 25.6773 170.463 27.064C169.738 28.4507 168.693 29.5173 167.327 30.264C165.962 31.0107 164.33 31.384 162.431 31.384ZM162.431 27.352C163.711 27.352 164.714 26.8827 165.439 25.944C166.186 25.0053 166.559 23.7253 166.559 22.104C166.559 20.4613 166.186 19.1813 165.439 18.264C164.714 17.3253 163.711 16.856 162.431 16.856C161.13 16.856 160.106 17.3253 159.359 18.264C158.634 19.1813 158.271 20.4613 158.271 22.104C158.271 23.7253 158.634 25.0053 159.359 25.944C160.106 26.8827 161.13 27.352 162.431 27.352Z" fill="#00A88B"/>
</g>
<defs>
<clipPath id="clip0_830_10">
<rect width="200" height="40" fill="white"/>
</clipPath>
</defs>
</svg>
